<?xml version="1.0" standalone="no"?>
<!DOCTYPE svg PUBLIC "-//W3C//DTD SVG 20010904//EN"
 "http://www.w3.org/TR/2001/REC-SVG-20010904/DTD/svg10.dtd">
<svg version="1.0" xmlns="http://www.w3.org/2000/svg"
 width="1500.000000pt" height="935.000000pt" viewBox="0 0 1500.000000 935.000000"
 preserveAspectRatio="xMidYMid meet">

<g transform="translate(0.000000,935.000000) scale(0.100000,-0.100000)"
fill="#000000" stroke="none">
<path d="M1200 4675 l0 -3795 3800 0 3800 0 0 820 0 820 -175 0 -175 0 -2
-647 -3 -648 -3445 0 -3445 0 0 3450 0 3450 3445 0 3445 0 3 -647 2 -648 175
0 175 0 0 820 0 820 -3800 0 -3800 0 0 -3795z"/>
<path d="M6938 6608 c-259 -16 -510 -84 -734 -196 -562 -282 -906 -797 -984
-1471 -17 -140 -8 -514 15 -636 85 -463 263 -809 562 -1095 218 -209 462 -341
773 -419 201 -51 333 -64 580 -58 232 6 356 22 575 76 195 49 465 145 465 167
0 6 -16 48 -36 95 -19 46 -49 117 -66 157 -17 39 -33 72 -37 72 -3 0 -54 -16
-113 -35 -299 -95 -635 -139 -883 -116 -557 53 -980 329 -1218 792 -268 524
-228 1167 103 1663 141 210 310 358 535 467 210 102 379 139 628 139 235 0
476 -41 766 -130 73 -23 136 -39 138 -36 8 7 132 349 133 362 0 14 -236 94
-380 128 -58 14 -158 35 -223 46 -117 20 -404 43 -464 38 -18 -2 -79 -6 -135
-10z"/>
<path d="M10335 6613 c-505 -62 -878 -259 -1089 -576 -69 -103 -108 -189 -138
-299 -19 -69 -23 -107 -22 -228 1 -128 4 -156 28 -235 36 -120 95 -222 184
-317 164 -174 370 -274 1012 -493 411 -140 535 -202 666 -330 94 -93 137 -171
154 -280 49 -313 -173 -555 -595 -650 -96 -22 -408 -31 -516 -16 -214 31 -427
85 -697 177 -90 31 -164 55 -166 53 -1 -2 -36 -101 -78 -219 l-75 -215 111
-43 c215 -83 465 -154 660 -188 140 -24 521 -30 671 -10 246 32 495 112 651
206 260 159 442 401 511 678 24 96 24 344 0 431 -74 272 -216 434 -532 610
-146 81 -276 135 -534 221 -388 129 -645 239 -760 326 -281 211 -273 565 19
779 59 43 175 101 263 131 291 99 690 88 1152 -31 76 -20 139 -34 141 -32 13
12 144 401 137 407 -30 27 -424 111 -632 135 -113 14 -443 19 -526 8z"/>
<path d="M3370 4685 l0 -1905 225 0 225 0 0 1905 0 1905 -225 0 -225 0 0
-1905z"/>
</g>
</svg>
